<svg xmlns="http://www.w3.org/2000/svg" viewBox="0 0 512 512" role="img" aria-label="Roleta Erótica">
  <defs>
    <linearGradient id="gold" x1="0" y1="0" x2="512" y2="512" gradientUnits="userSpaceOnUse">
      <stop stop-color="#e3c878"/>
      <stop offset="1" stop-color="#c9a24b"/>
    </linearGradient>
    <linearGradient id="bg" x1="64" y1="64" x2="448" y2="448" gradientUnits="userSpaceOnUse">
      <stop stop-color="#1a0a10"/>
      <stop offset="1" stop-color="#090406"/>
    </linearGradient>
  </defs>
  <rect width="512" height="512" rx="112" fill="url(#bg)"/>
  <g transform="translate(256,256)">
    <circle r="150" fill="#160611"/>
    <path d="M0 0 L130 -75 A150 150 0 0 1 130 75 Z" fill="#e0457b"/>
    <path d="M0 0 L130 75 A150 150 0 0 1 0 150 Z" fill="#7a1d2e"/>
    <path d="M0 0 L0 150 A150 150 0 0 1 -130 75 Z" fill="url(#gold)"/>
    <path d="M0 0 L-130 75 A150 150 0 0 1 -130 -75 Z" fill="#e0457b"/>
    <path d="M0 0 L-130 -75 A150 150 0 0 1 0 -150 Z" fill="#7a1d2e"/>
    <path d="M0 0 L0 -150 A150 150 0 0 1 130 -75 Z" fill="url(#gold)"/>
    <g stroke="#e3c878" stroke-opacity=".3" stroke-width="2">
      <line x1="0" y1="0" x2="130" y2="-75"/>
      <line x1="0" y1="0" x2="130" y2="75"/>
      <line x1="0" y1="0" x2="0" y2="150"/>
      <line x1="0" y1="0" x2="-130" y2="75"/>
      <line x1="0" y1="0" x2="-130" y2="-75"/>
      <line x1="0" y1="0" x2="0" y2="-150"/>
    </g>
    <circle r="150" fill="none" stroke="#e3c878" stroke-width="9"/>
    <circle r="40" fill="#160611" stroke="#e3c878" stroke-width="6"/>
    <circle r="9" fill="url(#gold)"/>
  </g>
  <path d="M256 78l20 42h-40Z" fill="#e3c878"/>
</svg>
