<svg xmlns="http://www.w3.org/2000/svg" viewBox="0 0 1200 630">
  <defs>
    <linearGradient id="gold" x1="0" y1="0" x2="512" y2="512" gradientUnits="userSpaceOnUse">
      <stop stop-color="#e3c878"/>
      <stop offset="1" stop-color="#c9a24b"/>
    </linearGradient>
    <linearGradient id="bg" x1="0" y1="0" x2="1200" y2="630" gradientUnits="userSpaceOnUse">
      <stop stop-color="#1a0a10"/>
      <stop offset="1" stop-color="#090406"/>
    </linearGradient>
    <radialGradient id="glow" cx=".28" cy=".5" r=".5">
      <stop stop-color="#e0457b" stop-opacity=".18"/>
      <stop offset="1" stop-color="#e0457b" stop-opacity="0"/>
    </radialGradient>
  </defs>
  <rect width="1200" height="630" fill="url(#bg)"/>
  <rect width="1200" height="630" fill="url(#glow)"/>
  <g transform="translate(335,315) scale(.92)">
    <circle r="150" fill="#160611"/>
    <path d="M0 0 L130 -75 A150 150 0 0 1 130 75 Z" fill="#e0457b"/>
    <path d="M0 0 L130 75 A150 150 0 0 1 0 150 Z" fill="#7a1d2e"/>
    <path d="M0 0 L0 150 A150 150 0 0 1 -130 75 Z" fill="url(#gold)"/>
    <path d="M0 0 L-130 75 A150 150 0 0 1 -130 -75 Z" fill="#e0457b"/>
    <path d="M0 0 L-130 -75 A150 150 0 0 1 0 -150 Z" fill="#7a1d2e"/>
    <path d="M0 0 L0 -150 A150 150 0 0 1 130 -75 Z" fill="url(#gold)"/>
    <circle r="150" fill="none" stroke="#e3c878" stroke-width="9"/>
    <circle r="40" fill="#160611" stroke="#e3c878" stroke-width="6"/>
    <circle r="9" fill="url(#gold)"/>
    <path d="M0 -178l20 42h-40Z" fill="#e3c878"/>
  </g>
  <text x="570" y="286" font-family="Georgia, serif" font-style="italic" font-weight="700" font-size="66" fill="#f5f0ea">Roleta Erótica</text>
  <text x="574" y="346" font-family="Helvetica, Arial, sans-serif" font-size="28" letter-spacing="5" fill="#c9a24b">PROGRESSÃO SENSORIAL</text>
  <rect x="574" y="374" width="120" height="3" fill="#e0457b"/>
</svg>
